Coordinates
version=1
nRows=13
nColumns=36
inDegrees=yes

Units are S.I. units (second, meters, Newtons, ...)
If the header above contains a line with 'inDegrees', this indicates whether rotational values are in degrees (yes) or radians (no).

endheader
time	pelvis_tilt	pelvis_list	pelvis_rotation	pelvis_tx	pelvis_ty	pelvis_tz	hip_flexion_r	hip_adduction_r	hip_rotation_r	knee_angle_r	knee_angle_r_beta	ankle_angle_r	subtalar_angle_r	mtp_angle_r	hip_flexion_l	hip_adduction_l	hip_rotation_l	knee_angle_l	knee_angle_l_beta	ankle_angle_l	subtalar_angle_l	mtp_angle_l	lumbar_extension	lumbar_bending	lumbar_rotation	arm_flex_r	arm_add_r	arm_rot_r	elbow_flex_r	pro_sup_r	arm_flex_l	arm_add_l	arm_rot_l	elbow_flex_l	pro_sup_l
      2.84000000	    -37.33485947	     -4.34809156	     -5.34709406	     -0.43583574	      0.79383700	     -0.60200730	     99.55840657	     -7.83177544	      0.43265769	     82.86328725	      1.44623719	     19.19955963	     -5.21348507	     -7.49918406	    103.83871117	    -22.89435354	     11.22380676	     86.36873720	      1.50741883	     23.30893260	      8.46012701	     -7.49918406	    -38.78725633	      0.64843186	      9.53058906	     36.46864712	    -44.47998487	    -13.58900904	    145.02107504	    103.48461308	     37.90316452	    -31.51112418	      5.71172283	    147.16608964	    112.25019049
      2.85000000	    -36.99219775	     -4.39454307	     -5.22094309	     -0.43126395	      0.80364196	     -0.60152374	     98.05203719	     -7.59855666	      0.39548238	     81.73538291	      1.42655155	     18.92560925	     -5.78804369	     -7.49919136	    102.21909420	    -23.03112406	     10.65780433	     85.11920350	      1.48561036	     23.21876851	      8.52124351	     -7.49919136	    -38.61633303	      0.72131879	      9.26984910	     34.52089578	    -43.27948992	    -13.77664627	    144.84617490	    103.55137246	     36.32220832	    -30.91027146	      5.30841341	    146.99217791	    112.15570640
      2.86000000	    -36.53419972	     -4.37442338	     -5.03520632	     -0.42671840	      0.81370423	     -0.60137957	     96.46526648	     -7.50553854	      0.39571041	     80.58766089	      1.40652002	     18.47848993	     -6.34479532	     -7.49920119	    100.41178412	    -23.05622565	     10.02813815	     83.83975321	      1.46327974	     23.08511740	      8.53511173	     -7.49920119	    -38.52521853	      0.78633935	      9.04651112	     32.50575880	    -42.17915765	    -14.00775238	    144.73755405	    103.67099353	     34.86699084	    -30.18179851	      4.95930532	    146.77705054	    112.06131615
      2.87000000	    -36.10685430	     -4.37733434	     -4.82723146	     -0.42229551	      0.82369116	     -0.60136180	     94.90384125	     -7.49503525	      0.34897387	     79.42509121	      1.38622935	     18.20559776	     -6.51643867	     -7.49920623	     98.68495473	    -23.05307866	      9.40027614	     82.56615337	      1.44105123	     22.87610072	      8.56766591	     -7.49920623	    -38.28620982	      0.89807837	      8.80443992	     30.47022391	    -41.08582829	    -13.91928226	    144.50513473	    103.74078789	     33.31455249	    -29.46939874	      4.89166598	    146.51825442	    112.01402730
      2.88000000	    -35.75164221	     -4.22775286	     -4.61000543	     -0.41819285	      0.83358805	     -0.60145754	     93.48189018	     -7.50388738	      0.48241374	     78.20842899	      1.36499459	     17.81017291	     -6.76365604	     -7.49921371	     96.93571137	    -23.00639279	      8.58706910	     81.18627663	      1.41696783	     22.63655293	      8.52845466	     -7.49921371	    -37.92907749	      0.87670290	      8.46884542	     28.39426207	    -40.04868083	    -14.14486897	    144.25596041	    103.84350187	     31.80033737	    -28.75132515	      4.60868496	    146.16961969	    111.91966843
      2.89000000	    -35.55208677	     -4.33417750	     -4.44024040	     -0.41434540	      0.84325372	     -0.60173839	     92.09031501	     -7.49557916	      0.32799985	     76.85365978	      1.34134941	     17.63759159	     -6.69081021	     -7.49921511	     95.50426919	    -22.91253889	      8.15755157	     79.81578935	      1.39304832	     22.48373347	      8.57633892	     -7.49921511	    -37.39896109	      1.13670702	      8.29518717	     26.54975121	    -39.21901653	    -13.76068816	    144.10463299	    103.88430285	     30.16595642	    -28.13336083	      4.85876677	    146.05493227	    111.92831877
      2.90000000	    -35.20709828	     -3.85683174	     -3.85373261	     -0.41059712	      0.85277934	     -0.60300316	     90.89268620	     -8.10042765	      0.66692278	     75.78437999	      1.32268695	     16.83064823	     -7.13576388	     -7.49923999	     93.58911446	    -22.20829367	      7.10781037	     78.33572770	      1.36721637	     21.85178804	      7.86047371	     -7.49923999	    -36.81022313	      1.03098842	      7.76007053	     23.95431980	    -38.20080099	    -14.46246925	    143.77525842	    104.29870785	     28.87886470	    -27.00397973	      4.84215883	    145.33990644	    111.74021835
      2.91000000	    -35.09238539	     -3.90269935	     -3.68442871	     -0.40722463	      0.86168089	     -0.60342015	     89.66605549	     -8.18872034	      0.45337799	     74.44071604	      1.29923559	     16.69118420	     -7.02759677	     -7.49924128	     92.32473190	    -22.07869659	      6.63898464	     77.01654422	      1.34419228	     21.69203879	      7.93159301	     -7.49924128	    -36.00779127	      1.27439040	      7.58647005	     22.06638716	    -37.43966521	    -14.00423627	    143.54502673	    104.33645355	     27.17568368	    -26.38568551	      5.12804745	    145.19289191	    111.75325562
      2.92000000	    -35.46071582	     -3.56453814	     -3.61069453	     -0.40428134	      0.86911317	     -0.60330099	     89.23731397	     -8.24084483	      0.61629861	     73.33848644	      1.27999806	     16.13616321	     -7.06507151	     -7.49924891	     91.46737163	    -21.94314111	      5.89395370	     75.69889312	      1.32119493	     21.14489773	      7.77235119	     -7.49924891	    -34.29814562	      1.07623111	      7.39020869	     19.52345513	    -36.35958475	    -13.88141461	    142.98518290	    104.45960975	     25.29416167	    -25.48776795	      5.00846319	    144.42967465	    111.67011894
      2.93000000	    -35.19364672	     -3.61812100	     -3.46503208	     -0.40057732	      0.87843874	     -0.60357825	     87.81726306	     -8.34085815	      0.30875900	     71.95610867	      1.25587101	     15.95720497	     -6.97280688	     -7.49925037	     90.02465248	    -21.87813198	      5.39145470	     74.34002400	      1.29747818	     20.93968763	      7.79751498	     -7.49925037	    -33.57500666	      1.26221341	      7.23673685	     17.60680698	    -35.53880563	    -13.40471424	    142.74701859	    104.50281842	     23.51766768	    -24.92532090	      5.39005631	    144.21784670	    111.69433536
      2.94000000	    -33.81442904	     -3.23213787	     -2.48077535	     -0.39595157	      0.89090346	     -0.60593622	     85.27685014	     -9.52290730	      0.26998725	     70.62285487	      1.23260134	     15.45338917	     -6.93051639	     -7.49925641	     86.88945956	    -20.72794511	      4.41552092	     72.51014803	      1.26554082	     20.27495624	      7.47934932	     -7.49925641	    -34.11342373	      1.39542995	      6.37326516	     15.99927061	    -34.69074093	    -13.29982737	    142.05104903	    104.57708131	     22.51485875	    -23.94894214	      5.65102741	    143.19262568	    111.64550893
      2.95000000	    -32.50638059	     -2.94835207	     -1.98200199	     -0.39106269	      0.90295171	     -0.60713217	     82.71652893	    -10.14063867	      0.11793133	     69.15599370	      1.20699979	     15.18540311	     -6.78451117	     -7.49926227	     83.96005392	    -20.21657461	      3.47132187	     70.81334344	      1.23592600	     19.78449481	      7.15785036	     -7.49926227	    -34.54777808	      1.37698601	      5.90512170	     14.39021813	    -33.85888004	    -13.07007378	    141.49123695	    104.66206816	     21.27081489	    -23.26634532	      6.05582635	    142.45584741	    111.64062746
      2.96000000	    -31.95760261	     -2.90329488	     -2.50605008	     -0.38645674	      0.91229342	     -0.60581169	     81.02419188	     -9.48870453	      0.03096166	     67.72313190	      1.18199163	     14.97925153	     -6.64222841	     -7.49926762	     82.13039303	    -20.97127196	      2.70088623	     69.51552280	      1.21327475	     19.49181766	      7.13462089	     -7.49926762	    -33.88203149	      1.04256425	      6.30962907	     12.45730428	    -32.93087080	    -12.64422061	    140.93969466	    104.74697902	     19.44727787	    -22.78240118	      6.36721695	    141.83641024	    111.63161395
